<?xml version="1.0" standalone="no"?>
<!DOCTYPE svg PUBLIC "-//W3C//DTD SVG 20010904//EN"
 "http://www.w3.org/TR/2001/REC-SVG-20010904/DTD/svg10.dtd">
<svg version="1.0" xmlns="http://www.w3.org/2000/svg"
 width="512.000000pt" height="512.000000pt" viewBox="0 0 512.000000 512.000000"
 preserveAspectRatio="xMidYMid meet">
<metadata>
Created by potrace 1.14, written by Peter Selinger 2001-2017
</metadata>
<g transform="translate(0.000000,512.000000) scale(0.100000,-0.100000)"
fill="#000000" stroke="none">
<path d="M1115 5111 c-99 -25 -179 -92 -227 -189 l-33 -67 -2 -1215 c-1 -668
-2 -1223 -2 -1232 -1 -16 -25 -17 -283 -20 -283 -3 -283 -3 -321 -28 -20 -14
-46 -44 -57 -66 -20 -40 -20 -57 -18 -857 l3 -815 31 -39 c54 -67 58 -68 367
-71 152 -2 277 -6 278 -10 0 -4 1 -59 3 -122 2 -100 6 -123 28 -172 35 -75 94
-138 165 -174 l58 -29 1780 -2 c1735 -2 1781 -2 1834 17 106 38 189 126 216
231 13 46 15 340 15 2024 l0 1970 -25 54 c-21 44 -90 118 -383 411 -228 229
-373 366 -402 381 l-45 24 -1475 2 c-811 0 -1488 -2 -1505 -6z m2896 -358 c1
-109 1 -201 0 -205 0 -4 8 -36 19 -72 47 -151 178 -264 340 -290 14 -3 112 -5
218 -5 l192 -1 -2 -1948 -3 -1949 -28 -36 c-16 -21 -40 -45 -55 -55 -24 -16
-137 -17 -1779 -20 -1605 -2 -1756 -1 -1786 14 -83 42 -100 78 -102 217 l-2
107 31 0 c17 0 486 0 1041 1 998 0 1011 1 1053 21 29 14 51 35 69 65 l26 45 0
807 0 808 -24 43 c-16 29 -39 51 -68 67 l-44 23 -1041 0 -1041 0 0 1218 c1
1318 -2 1245 52 1294 54 49 -13 47 1511 48 l1422 0 1 -197z m409 -163 c127
-126 230 -233 230 -236 0 -12 -266 0 -308 14 -50 17 -118 80 -140 131 -16 37
-32 321 -18 321 4 0 110 -103 236 -230z m-1350 -2692 c1 -796 0 -1200 -5
-1207 -2 -4 -615 -7 -1362 -7 l-1358 1 -3 768 -2 767 1365 0 1365 0 0 -322z"/>
<path d="M1440 4519 c-59 -13 -85 -55 -67 -112 19 -59 -29 -57 1094 -57 690 1
1039 4 1061 11 85 28 61 158 -30 160 -182 4 -2035 2 -2058 -2z"/>
<path d="M1417 4087 c-37 -14 -59 -66 -45 -108 19 -56 -26 -53 1109 -53 l1049
0 27 26 c34 35 34 82 -2 117 l-25 26 -1046 0 c-575 0 -1055 -4 -1067 -8z"/>
<path d="M1412 3660 c-27 -11 -51 -62 -44 -96 2 -13 16 -33 30 -44 24 -20 45
-20 1504 -20 l1480 0 28 29 c23 23 28 34 24 62 -3 19 -16 44 -30 57 l-25 22
-1472 -1 c-871 0 -1481 -4 -1495 -9z"/>
<path d="M1421 3234 c-47 -20 -62 -53 -48 -106 16 -60 -72 -57 1532 -57 1013
0 1473 3 1487 10 25 14 48 67 41 99 -2 14 -16 34 -30 44 -25 19 -65 19 -1491
20 -1042 1 -1472 -2 -1491 -10z"/>
<path d="M1412 2807 c-27 -12 -50 -61 -45 -92 6 -26 37 -64 56 -66 65 -6 2934
-2 2957 4 43 11 65 57 50 103 -6 19 -21 40 -33 46 -27 15 -2952 20 -2985 5z"/>
<path d="M3544 2378 c-32 -15 -48 -51 -40 -91 13 -68 8 -67 466 -67 l412 0 28
29 c23 23 28 34 24 62 -3 19 -16 44 -30 57 l-25 22 -407 -1 c-258 0 -415 -4
-428 -11z"/>
<path d="M3581 1959 c-77 -10 -106 -79 -57 -136 l24 -28 412 -2 c278 -2 418 1
432 8 25 14 48 67 41 99 -2 14 -16 34 -30 44 -24 18 -49 19 -402 20 -207 1
-396 -2 -420 -5z"/>
<path d="M3551 1528 c-51 -18 -66 -90 -27 -134 l23 -28 401 0 c221 -1 415 2
432 7 43 11 65 57 50 103 -6 19 -21 40 -33 46 -16 9 -127 13 -424 13 -222 0
-411 -3 -422 -7z"/>
<path d="M3545 1098 c-48 -28 -59 -84 -25 -128 l19 -25 421 -3 421 -3 29 29
c23 24 28 35 24 63 -3 19 -16 44 -30 57 l-25 22 -407 0 c-287 -1 -413 -4 -427
-12z"/>
<path d="M3568 678 c-71 -14 -92 -96 -38 -142 l31 -26 406 0 c265 0 412 4 425
11 25 14 48 67 41 99 -2 14 -16 34 -30 44 -24 18 -49 19 -414 20 -213 1 -403
-2 -421 -6z"/>
<path d="M1554 1955 c-110 -25 -198 -97 -247 -202 -21 -46 -22 -61 -22 -303 0
-254 0 -255 26 -310 33 -70 99 -136 169 -169 72 -34 201 -37 270 -6 94 40 157
109 194 209 16 41 19 81 19 270 0 247 -6 283 -59 364 -75 114 -221 176 -350
147z m139 -180 c20 -8 48 -31 64 -52 l28 -36 3 -223 c3 -207 2 -225 -17 -262
-57 -112 -220 -120 -291 -15 -24 35 -25 42 -28 238 -4 260 4 292 88 344 41 25
102 27 153 6z"/>
<path d="M625 1935 c-14 -13 -25 -34 -26 -47 0 -13 -1 -201 -1 -419 -1 -442
-1 -443 70 -497 l35 -27 214 -3 c236 -4 251 -1 271 56 13 38 -8 89 -43 102
-15 6 -105 10 -201 10 -159 0 -174 2 -174 18 -1 9 0 182 0 383 1 373 -2 408
-38 435 -28 22 -80 17 -107 -11z"/>
<path d="M2363 1942 c-116 -41 -200 -138 -222 -256 -5 -25 -8 -144 -7 -263 2
-217 2 -218 30 -280 33 -73 103 -144 174 -176 37 -17 66 -22 137 -22 78 0 97
4 146 28 69 34 132 100 167 175 22 48 26 71 26 155 0 96 0 100 -27 123 -26 22
-37 24 -138 24 -120 0 -142 -6 -163 -48 -16 -32 -14 -54 8 -87 16 -24 41 -32
116 -37 31 -3 35 -6 31 -28 -17 -122 -177 -183 -271 -103 -59 49 -63 68 -65
293 -2 222 3 251 52 302 34 36 84 52 140 45 52 -6 89 -30 120 -78 48 -75 57
-82 99 -81 44 2 84 37 84 75 0 35 -45 119 -85 159 -86 87 -235 121 -352 80z"/>
</g>
</svg>
